#N canvas 0 0 500 500 ;
#X obj 152 219 osc~ 44;
#X obj 152 67 osc~ 4.3;
#X obj 152 118 *~ 51;
#X obj 152 168 +~ 44;
#X obj 152 269 dac~;
#X connect 1 0 2 0;
#X connect 2 0 3 0;
#X connect 3 0 0 0;
#X connect 0 0 4 0;
#X connect 0 0 4 1;
