#N canvas 109 112 462 376 10;
#X obj 188 162 cnv 10 10 100 empty empty empty 20 12 0 14 #285014 #404040 0;
#X obj 178 162 cnv 15 10 30 empty empty empty 20 12 0 14 #285014 #404040 0;
#X obj 66 97 vsl 8 40 0 127 0 0 empty empty empty 0 -8 0 8 #285014 #000000 #000000 0 1;
#X obj 71 104 vsl 8 40 0 127 0 0 empty empty empty 0 -8 0 8 #285014 #000000 #000000 0 1;
#X obj 76 108 vsl 8 40 0 127 0 0 empty empty empty 0 -8 0 8 #285014 #000000 #000000 0 1;
#X obj 80 118 vsl 8 40 0 127 0 0 empty empty empty 0 -8 0 8 #285014 #000000 #000000 0 1;
#X obj 71 119 bng 25 250 50 0 empty empty empty 0 -6 0 8 #285014 #000000 #000000;
#X obj 177 116 vsl 8 40 0 127 0 0 empty empty empty 0 -8 0 8 #285014 #000000 #000000 0 1;
#X obj 182 113 vsl 8 40 0 127 0 0 empty empty empty 0 -8 0 8 #285014 #000000 #000000 0 1;
#X obj 187 106 vsl 8 40 0 127 0 0 empty empty empty 0 -8 0 8 #285014 #000000 #000000 0 1;
#X obj 190 97 vsl 8 40 0 127 0 0 empty empty empty 0 -8 0 8 #285014 #000000 #000000 0 1;
#X obj 165 118 bng 25 250 50 0 empty empty empty 0 -6 0 8 #285014 #000000 #000000;
#X obj 88 68 cnv 15 92 60 empty empty empty 20 12 0 14 #285014 #000000 0;
#X obj 143 111 bng 37 250 50 0 empty onalways empty 0 -6 0 8 #285014 #e8e828 #000000;
#X obj 167 130 bng 8 250 50 0 empty empty empty 0 -6 0 8 #000000 #000000 #000000;
#X obj 87 108 bng 40 250 50 0 empty onalways empty 0 -6 0 8 #285014 #e8e828 #000000;
#X obj 96 127 bng 8 250 50 0 empty empty empty 0 -6 0 8 #000000 #000000 #000000;
#X obj 143 62 nbx 1 50 -1e+37 1e+37 0 0 empty empty empty 0 -6 0 10 #285014 #000000 #000000 0 256;
#X obj 127 85 vsl 8 60 0 127 0 0 empty empty empty 0 -8 0 8 #285014 #000000 #000000 0 1;
#X obj 143 57 nbx 1 40 -1e+37 1e+37 0 0 empty empty empty 0 -6 0 10 #285014 #000000 #000000 0 256;
#X obj 143 52 nbx 1 30 -1e+37 1e+37 0 0 empty empty empty 0 -6 0 10 #285014 #000000 #000000 0 256;
#X obj 143 47 nbx 1 20 -1e+37 1e+37 0 0 empty empty empty 0 -6 0 10 #285014 #000000 #000000 0 256;
#X obj 143 42 nbx 1 10 -1e+37 1e+37 0 0 empty empty empty 0 -6 0 10 #285014 #000000 #000000 0 256;
#X obj 135 85 vsl 8 60 0 127 0 0 empty empty empty 0 -8 0 8 #285014 #000000 #000000 0 1;
#X obj 88 59 cnv 15 50 40 empty empty empty 20 12 0 14 #285014 #000000 0;
#X obj 90 57 cnv 15 50 40 empty empty empty 20 12 0 14 #285014 #000000 0;
#X obj 93 55 cnv 15 50 40 empty empty empty 20 12 0 14 #285014 #000000 0;
#X obj 96 52 cnv 15 50 40 empty empty empty 20 12 0 14 #285014 #000000 0;
#X obj 99 49 cnv 15 50 40 empty empty empty 20 12 0 14 #285014 #000000 0;
#X obj 101 47 cnv 15 50 40 empty empty empty 20 12 0 14 #285014 #000000 0;
#X obj 104 45 cnv 15 50 40 empty empty empty 20 12 0 14 #285014 #000000 0;
#X obj 107 42 cnv 15 50 40 empty empty empty 20 12 0 14 #285014 #000000 0;
#X obj 88 150 vsl 15 10 0 127 0 0 empty wen empty 0 -8 0 8 #fcfcfc #000000 #000000 0 1;
#X obj 103 150 vsl 15 10 0 127 0 0 empty too empty 0 -8 0 8 #fcfcfc #000000 #000000 0 1;
#X obj 118 150 vsl 15 10 0 127 0 0 empty free empty 0 -8 0 8 #fcfcfc #000000 #000000 0 1;
#X obj 133 150 vsl 15 10 0 127 0 0 empty for empty 0 -8 0 8 #fcfcfc #000000 #000000 0 1;
#X obj 147 150 vsl 15 10 0 127 0 0 empty fiv empty 0 -8 0 8 #fcfcfc #000000 #000000 0 1;
#X obj 162 150 vsl 15 10 0 127 0 0 empty secks empty 0 -8 0 8 #fcfcfc #000000 #000000 0 1;
#X obj 77 163 cnv 15 10 30 empty empty empty 20 12 0 14 #285014 #404040 0;
#X obj 69 163 cnv 10 10 100 empty empty empty 20 12 0 14 #285014 #404040 0;
#X obj 105 239 cnv 10 10 100 empty empty empty 20 12 0 14 #285014 #404040 0;
#X obj 145 240 cnv 10 10 100 empty empty empty 20 12 0 14 #285014 #404040 0;
#X obj 179 263 vsl 8 40 0 127 0 0 empty empty empty 0 -8 0 8 #285014 #fcfcfc #000000 0 1;
#X obj 190 273 vsl 8 40 0 127 0 0 empty empty empty 0 -8 0 8 #285014 #fcfcfc #000000 0 1;
#X obj 201 267 vsl 8 40 0 127 0 0 empty empty empty 0 -8 0 8 #285014 #fcfcfc #000000 0 1;
#X obj 166 254 hsl 30 15 0 127 0 0 empty empty empty -2 -6 0 8 #285014 #fcfcfc #000000 0 1;
#X obj 179 251 cnv 15 30 30 empty empty empty 20 12 0 14 #285014 #404040 0;
#X obj 63 340 hsl 30 15 0 127 0 0 empty empty empty -2 -6 0 8 #285014 #fcfcfc #000000 0 1;
#X obj 85 325 cnv 15 30 30 empty empty empty 20 12 0 14 #285014 #404040 0;
#X obj 163 340 hsl 30 15 0 127 0 0 empty toe empty -2 -6 0 8 #285014 #fcfcfc #000000 0 1;
#X obj 145 325 cnv 15 30 30 empty empty empty 20 12 0 14 #285014 #404040 0;
#X obj 87 162 cnv 15 90 90 empty empty empty 20 12 0 14 #285014 #404040 0;
#N canvas 0 38 1332 937 gremlins2_obiwannabe 1;
#X obj 141 827 dac~;
#N canvas 0 0 450 300 pulse 0;
#X obj 109 70 osc~ 640;
#X obj 109 127 *~;
#X obj 93 179 /~;
#X obj 110 99 *~;
#X obj 92 225 *~;
#X obj 188 141 pow -1;
#X obj 92 201 -~ 1;
#X obj 109 153 +~ 1;
#X obj 62 154 sig~ 1;
#X obj 188 121 sqrt;
#X obj 109 42 inlet f;
#X obj 188 41 inlet w;
#X obj 91 251 outlet~;
#X obj 249 14 loadbang;
#X msg 249 40 24;
#X connect 0 0 3 0;
#X connect 1 0 7 0;
#X connect 2 0 6 0;
#X connect 3 0 1 0;
#X connect 3 0 1 1;
#X connect 4 0 12 0;
#X connect 5 0 4 1;
#X connect 6 0 4 0;
#X connect 7 0 2 1;
#X connect 8 0 2 0;
#X connect 9 0 5 0;
#X connect 10 0 0 0;
#X connect 11 0 9 0;
#X connect 11 0 3 1;
#X connect 13 0 14 0;
#X connect 14 0 9 0;
#X connect 14 0 3 1;
#X restore 67 480 pd pulse;
#N canvas 0 0 450 300 voiceres 0;
#X obj 118 226 vcf~ 1 1;
#X obj 53 226 vcf~ 1 1;
#X obj 185 227 vcf~ 1 1;
#X obj 145 182 +;
#X obj 176 181 +;
#X obj 145 151 t b f;
#X obj 187 150 t b f;
#X obj 123 124 +;
#X obj 124 96 t b f;
#X msg 233 183 50;
#X obj 119 267 outlet~;
#X obj 53 51 inlet~;
#X obj 152 44 inlet;
#X obj 201 43 inlet;
#X obj 254 43 inlet;
#X obj 233 160 loadbang;
#X obj 109 44 inlet;
#X connect 0 0 10 0;
#X connect 1 0 10 0;
#X connect 2 0 10 0;
#X connect 3 0 0 1;
#X connect 4 0 2 1;
#X connect 5 0 3 0;
#X connect 5 1 3 1;
#X connect 6 0 4 0;
#X connect 6 1 4 1;
#X connect 7 0 1 1;
#X connect 7 0 3 0;
#X connect 7 0 4 0;
#X connect 8 0 7 0;
#X connect 8 1 7 1;
#X connect 9 0 1 2;
#X connect 9 0 0 2;
#X connect 9 0 2 2;
#X connect 11 0 1 0;
#X connect 11 0 0 0;
#X connect 11 0 2 0;
#X connect 12 0 8 0;
#X connect 13 0 5 0;
#X connect 14 0 6 0;
#X connect 15 0 9 0;
#X connect 16 0 7 0;
#X restore 68 529 pd voiceres;
#N canvas 615 469 450 300 sel~ 0;
#X obj 173 89 == 1;
#X obj 84 204 *~;
#X obj 114 203 *~;
#X obj 209 88 == 0;
#X obj 69 47 inlet~;
#X obj 120 46 inlet~;
#X obj 93 233 outlet~;
#X obj 185 20 inlet;
#X obj 173 135 line~;
#X msg 173 112 \$1 30;
#X obj 218 135 line~;
#X msg 218 112 \$1 30;
#X obj 265 136 line~;
#X msg 265 113 \$1 30;
#X obj 186 46 t f f f;
#X obj 256 89 == 2;
#X obj 149 202 *~;
#X obj 124 112 sig~ 0;
#X connect 0 0 9 0;
#X connect 1 0 6 0;
#X connect 2 0 6 0;
#X connect 3 0 11 0;
#X connect 4 0 1 0;
#X connect 5 0 2 0;
#X connect 7 0 14 0;
#X connect 8 0 1 1;
#X connect 9 0 8 0;
#X connect 10 0 2 1;
#X connect 11 0 10 0;
#X connect 12 0 16 1;
#X connect 13 0 12 0;
#X connect 14 0 0 0;
#X connect 14 1 3 0;
#X connect 14 2 15 0;
#X connect 15 0 13 0;
#X connect 16 0 6 0;
#X connect 17 0 16 0;
#X restore 67 505 pd sel~;
#X obj 64 313 unpack f f f f f;
#X obj 64 289 pack f f f f f;
#X obj 33 229 random 100;
#X obj 88 384 line;
#X obj 153 384 line;
#X obj 219 384 line;
#X obj 285 384 line;
#X obj 33 250 + 10;
#X obj 110 229 random 300;
#X obj 84 190 metro 50;
#X obj 89 437 * 32;
#X obj 88 360 pack f f;
#X obj 153 360 pack f f;
#X obj 219 360 pack f f;
#X obj 285 360 pack f f;
#X obj 270 317 r \$0-period;
#X obj 53 160 s \$0-period;
#N canvas 0 0 450 300 random 0;
#X obj 98 14 inlet;
#X obj 93 247 outlet;
#X msg 126 168 0;
#X msg 153 197 1;
#X msg 189 220 2;
#X text 159 168 noise;
#X text 187 197 pitched;
#X text 221 222 silence;
#X obj 98 39 random 100;
#X obj 98 64 moses 10;
#X obj 149 87 moses 60;
#X connect 0 0 8 0;
#X connect 2 0 1 0;
#X connect 3 0 1 0;
#X connect 4 0 1 0;
#X connect 8 0 9 0;
#X connect 9 0 2 0;
#X connect 9 1 10 0;
#X connect 10 0 3 0;
#X connect 10 1 4 0;
#X restore -53 230 pd random 3;
#X obj 267 250 + 800;
#X obj 189 250 + 500;
#X obj 110 250 + 300;
#N canvas 0 0 450 300 noise 0;
#X obj 114 73 noise~;
#X obj 115 97 lop~ 120;
#X obj 116 200 outlet~;
#X obj 166 42 inlet;
#X obj 116 123 *~ 24;
#X obj 117 145 clip~ -0.2 0.2;
#X obj 116 171 *~ 0.06;
#X connect 0 0 1 0;
#X connect 1 0 4 0;
#X connect 3 0 1 1;
#X connect 4 0 5 0;
#X connect 5 0 6 0;
#X connect 6 0 2 0;
#X restore 89 458 pd noise;
#X obj 267 228 random 800;
#X obj 189 229 random 500;
#X msg 53 139 75;
#X msg 84 139 1;
#X obj 142 757 hip~ 5;
#X obj 142 782 *~ 3;
#X obj 418 803 dac~;
#N canvas 0 0 454 304 pulse 0;
#X obj 109 70 osc~ 640;
#X obj 109 127 *~;
#X obj 93 179 /~;
#X obj 110 99 *~;
#X obj 92 225 *~;
#X obj 188 141 pow -1;
#X obj 92 201 -~ 1;
#X obj 109 153 +~ 1;
#X obj 62 154 sig~ 1;
#X obj 188 121 sqrt;
#X obj 109 42 inlet f;
#X obj 188 41 inlet w;
#X obj 91 251 outlet~;
#X obj 249 14 loadbang;
#X msg 249 40 24;
#X connect 0 0 3 0;
#X connect 1 0 7 0;
#X connect 2 0 6 0;
#X connect 3 0 1 0;
#X connect 3 0 1 1;
#X connect 4 0 12 0;
#X connect 5 0 4 1;
#X connect 6 0 4 0;
#X connect 7 0 2 1;
#X connect 8 0 2 0;
#X connect 9 0 5 0;
#X connect 10 0 0 0;
#X connect 11 0 9 0;
#X connect 11 0 3 1;
#X connect 13 0 14 0;
#X connect 14 0 9 0;
#X connect 14 0 3 1;
#X restore 472 478 pd pulse;
#N canvas 0 0 454 304 voiceres 0;
#X obj 118 226 vcf~ 1 1;
#X obj 53 226 vcf~ 1 1;
#X obj 185 227 vcf~ 1 1;
#X obj 145 182 +;
#X obj 176 181 +;
#X obj 145 151 t b f;
#X obj 187 150 t b f;
#X obj 123 124 +;
#X obj 124 96 t b f;
#X msg 233 183 50;
#X obj 119 267 outlet~;
#X obj 53 51 inlet~;
#X obj 152 44 inlet;
#X obj 201 43 inlet;
#X obj 254 43 inlet;
#X obj 233 160 loadbang;
#X obj 109 44 inlet;
#X connect 0 0 10 0;
#X connect 1 0 10 0;
#X connect 2 0 10 0;
#X connect 3 0 0 1;
#X connect 4 0 2 1;
#X connect 5 0 3 0;
#X connect 5 1 3 1;
#X connect 6 0 4 0;
#X connect 6 1 4 1;
#X connect 7 0 1 1;
#X connect 7 0 3 0;
#X connect 7 0 4 0;
#X connect 8 0 7 0;
#X connect 8 1 7 1;
#X connect 9 0 1 2;
#X connect 9 0 0 2;
#X connect 9 0 2 2;
#X connect 11 0 1 0;
#X connect 11 0 0 0;
#X connect 11 0 2 0;
#X connect 12 0 8 0;
#X connect 13 0 5 0;
#X connect 14 0 6 0;
#X connect 15 0 9 0;
#X connect 16 0 7 0;
#X restore 473 527 pd voiceres;
#N canvas 615 469 454 304 sel~ 0;
#X obj 173 89 == 1;
#X obj 84 204 *~;
#X obj 114 203 *~;
#X obj 209 88 == 0;
#X obj 69 47 inlet~;
#X obj 120 46 inlet~;
#X obj 93 233 outlet~;
#X obj 185 20 inlet;
#X obj 173 135 line~;
#X msg 173 112 \$1 30;
#X obj 218 135 line~;
#X msg 218 112 \$1 30;
#X obj 265 136 line~;
#X msg 265 113 \$1 30;
#X obj 186 46 t f f f;
#X obj 256 89 == 2;
#X obj 149 202 *~;
#X obj 124 112 sig~ 0;
#X connect 0 0 9 0;
#X connect 1 0 6 0;
#X connect 2 0 6 0;
#X connect 3 0 11 0;
#X connect 4 0 1 0;
#X connect 5 0 2 0;
#X connect 7 0 14 0;
#X connect 8 0 1 1;
#X connect 9 0 8 0;
#X connect 10 0 2 1;
#X connect 11 0 10 0;
#X connect 12 0 16 1;
#X connect 13 0 12 0;
#X connect 14 0 0 0;
#X connect 14 1 3 0;
#X connect 14 2 15 0;
#X connect 15 0 13 0;
#X connect 16 0 6 0;
#X connect 17 0 16 0;
#X restore 472 503 pd sel~;
#X obj 469 311 unpack f f f f f;
#X obj 469 287 pack f f f f f;
#X obj 438 227 random 100;
#X obj 493 382 line;
#X obj 558 382 line;
#X obj 624 382 line;
#X obj 690 382 line;
#X obj 515 227 random 300;
#X obj 489 188 metro 50;
#X obj 494 435 * 32;
#X obj 493 358 pack f f;
#X obj 558 358 pack f f;
#X obj 624 358 pack f f;
#X obj 690 358 pack f f;
#X obj 675 315 r \$0-period;
#X obj 458 158 s \$0-period;
#N canvas 0 0 454 304 random 0;
#X obj 98 14 inlet;
#X obj 93 247 outlet;
#X msg 126 168 0;
#X msg 153 197 1;
#X msg 189 220 2;
#X text 159 168 noise;
#X text 187 197 pitched;
#X text 221 222 silence;
#X obj 98 39 random 100;
#X obj 98 64 moses 10;
#X obj 149 87 moses 60;
#X connect 0 0 8 0;
#X connect 2 0 1 0;
#X connect 3 0 1 0;
#X connect 4 0 1 0;
#X connect 8 0 9 0;
#X connect 9 0 2 0;
#X connect 9 1 10 0;
#X connect 10 0 3 0;
#X connect 10 1 4 0;
#X restore 352 228 pd random 3;
#N canvas 0 0 450 300 noise 0;
#X obj 114 73 noise~;
#X obj 115 97 lop~ 120;
#X obj 116 200 outlet~;
#X obj 166 42 inlet;
#X obj 116 123 *~ 24;
#X obj 117 145 clip~ -0.2 0.2;
#X obj 116 171 *~ 0.06;
#X connect 0 0 1 0;
#X connect 1 0 4 0;
#X connect 3 0 1 1;
#X connect 4 0 5 0;
#X connect 5 0 6 0;
#X connect 6 0 2 0;
#X restore 494 456 pd noise;
#X obj 672 226 random 800;
#X obj 594 227 random 500;
#X msg 458 137 75;
#X msg 489 137 1;
#X obj 418 757 hip~ 5;
#X obj 423 777 *~ 3;
#X obj 671 248 + 900;
#X obj 594 248 + 700;
#X obj 515 248 + 500;
#X obj 438 248 + 50;
#X obj 313 39 s onalways;
#X obj 313 -1 tgl 15 0 empty empty empty 0 -6 0 8 #fcfcfc #000000 #000000 0 1;
#X obj 313 16 metro 100;
#X obj 313 -24 loadbang;
#X obj -34 301 s wen;
#X obj -20 321 s too;
#X obj -10 344 s free;
#X obj 0 364 s for;
#X obj 6 386 s fiv;
#X obj 381 38 s toe;
#X msg 381 18 128;
#X obj 10 296 * 0.5;
#X obj 23 320 * 0.2;
#X obj 34 343 * 0.125;
#X obj 13 407 s secks;
#X obj 419 297 * 0.5;
#X obj 432 321 * 0.2;
#X obj 375 302 s wen2;
#X obj 389 322 s too2;
#X obj 399 345 s free2;
#X obj 291 88 sel 0;
#X obj 294 125 s onalways2;
#X obj 287 65 random 3;
#X msg 477 34 \; pd dsp 1;
#X msg 288 593 \$1 1000;
#X obj 289 617 line~;
#X obj 165 700 *~;
#X obj 442 668 *~;
#X obj 288 564 tgl 16 0 empty empty empty 0 -8 0 10 #fcfcfc #000000 #000000 0 1;
#X obj 296 500 loadbang;
#X obj 296 521 delay 1000;
#X connect 1 0 3 0;
#X connect 2 0 90 0;
#X connect 3 0 2 0;
#X connect 4 0 3 2;
#X connect 4 1 15 0;
#X connect 4 2 16 0;
#X connect 4 3 17 0;
#X connect 4 4 18 0;
#X connect 5 0 4 0;
#X connect 6 0 11 0;
#X connect 7 0 1 0;
#X connect 7 0 2 1;
#X connect 7 0 14 0;
#X connect 8 0 2 2;
#X connect 9 0 2 3;
#X connect 10 0 2 4;
#X connect 11 0 5 1;
#X connect 11 0 68 0;
#X connect 11 0 78 0;
#X connect 12 0 24 0;
#X connect 12 0 75 0;
#X connect 12 0 72 0;
#X connect 13 0 6 0;
#X connect 13 0 12 0;
#X connect 13 0 21 0;
#X connect 13 0 26 0;
#X connect 13 0 27 0;
#X connect 14 0 25 0;
#X connect 15 0 7 0;
#X connect 16 0 8 0;
#X connect 17 0 9 0;
#X connect 18 0 10 0;
#X connect 19 0 18 1;
#X connect 19 0 17 1;
#X connect 19 0 16 1;
#X connect 19 0 15 1;
#X connect 21 0 5 0;
#X connect 22 0 5 4;
#X connect 23 0 5 3;
#X connect 24 0 5 2;
#X connect 25 0 3 1;
#X connect 26 0 22 0;
#X connect 26 0 77 0;
#X connect 27 0 23 0;
#X connect 27 0 76 0;
#X connect 28 0 20 0;
#X connect 28 0 13 1;
#X connect 29 0 13 0;
#X connect 30 0 31 0;
#X connect 30 0 0 1;
#X connect 31 0 0 0;
#X connect 33 0 35 0;
#X connect 34 0 91 0;
#X connect 35 0 34 0;
#X connect 36 0 35 2;
#X connect 36 1 46 0;
#X connect 36 2 47 0;
#X connect 36 3 48 0;
#X connect 36 4 49 0;
#X connect 37 0 36 0;
#X connect 38 0 63 0;
#X connect 39 0 33 0;
#X connect 39 0 34 1;
#X connect 39 0 45 0;
#X connect 40 0 34 2;
#X connect 41 0 34 3;
#X connect 42 0 34 4;
#X connect 43 0 62 0;
#X connect 43 0 79 0;
#X connect 44 0 38 0;
#X connect 44 0 43 0;
#X connect 44 0 52 0;
#X connect 44 0 54 0;
#X connect 44 0 55 0;
#X connect 45 0 53 0;
#X connect 46 0 39 0;
#X connect 47 0 40 0;
#X connect 48 0 41 0;
#X connect 49 0 42 0;
#X connect 50 0 49 1;
#X connect 50 0 48 1;
#X connect 50 0 47 1;
#X connect 50 0 46 1;
#X connect 52 0 37 0;
#X connect 53 0 35 1;
#X connect 54 0 60 0;
#X connect 55 0 61 0;
#X connect 55 0 80 0;
#X connect 56 0 51 0;
#X connect 56 0 44 1;
#X connect 57 0 44 0;
#X connect 58 0 59 0;
#X connect 58 0 32 0;
#X connect 59 0 32 1;
#X connect 60 0 37 4;
#X connect 61 0 37 3;
#X connect 62 0 37 2;
#X connect 63 0 37 1;
#X connect 63 0 81 0;
#X connect 65 0 66 0;
#X connect 66 0 64 0;
#X connect 66 0 86 0;
#X connect 67 0 65 0;
#X connect 67 0 74 0;
#X connect 67 0 28 0;
#X connect 67 0 29 0;
#X connect 67 0 56 0;
#X connect 67 0 57 0;
#X connect 67 0 87 0;
#X connect 74 0 73 0;
#X connect 75 0 69 0;
#X connect 76 0 70 0;
#X connect 77 0 71 0;
#X connect 79 0 82 0;
#X connect 80 0 83 0;
#X connect 84 0 85 0;
#X connect 86 0 84 0;
#X connect 88 0 89 0;
#X connect 89 0 90 1;
#X connect 89 0 91 1;
#X connect 90 0 30 0;
#X connect 91 0 58 0;
#X connect 92 0 88 0;
#X connect 93 0 94 0;
#X connect 94 0 92 0;
#X restore 8 8 pd gremlins2_obiwannabe;
#X obj 308 104 cnv 15 50 40 empty empty empty 20 12 0 14 #285014 #000000 0;
#X obj 310 102 cnv 15 50 40 empty empty empty 20 12 0 14 #285014 #000000 0;
#X obj 313 100 cnv 15 50 40 empty empty empty 20 12 0 14 #285014 #000000 0;
#X obj 316 97 cnv 15 50 40 empty empty empty 20 12 0 14 #285014 #000000 0;
#X obj 319 94 cnv 15 50 40 empty empty empty 20 12 0 14 #285014 #000000 0;
#X obj 321 92 cnv 15 50 40 empty empty empty 20 12 0 14 #285014 #000000 0;
#X obj 324 90 cnv 15 50 40 empty empty empty 20 12 0 14 #285014 #000000 0;
#X obj 327 87 cnv 15 50 40 empty empty empty 20 12 0 14 #285014 #000000 0;
#X obj 332 84 cnv 15 50 40 empty empty empty 20 12 0 14 #285014 #000000 0;
#X obj 335 87 cnv 15 50 40 empty empty empty 20 12 0 14 #285014 #000000 0;
#X obj 339 90 cnv 15 50 40 empty empty empty 20 12 0 14 #285014 #000000 0;
#X obj 342 93 cnv 15 50 40 empty empty empty 20 12 0 14 #285014 #000000 0;
#X obj 344 97 cnv 15 50 40 empty empty empty 20 12 0 14 #285014 #000000 0;
#X obj 347 100 cnv 15 50 40 empty empty empty 20 12 0 14 #285014 #000000 0;
#X obj 351 103 cnv 15 50 40 empty empty empty 20 12 0 14 #285014 #000000 0;
#X obj 354 106 cnv 15 50 40 empty empty empty 20 12 0 14 #285014 #000000 0;
#X obj 364 91 vsl 8 40 0 127 0 0 empty empty empty 0 -8 0 8 #285014 #000000 #000000 0 1;
#X obj 369 88 vsl 8 40 0 127 0 0 empty empty empty 0 -8 0 8 #285014 #000000 #000000 0 1;
#X obj 374 81 vsl 8 40 0 127 0 0 empty empty empty 0 -8 0 8 #285014 #000000 #000000 0 1;
#X obj 377 72 vsl 8 40 0 127 0 0 empty empty empty 0 -8 0 8 #285014 #000000 #000000 0 1;
#X obj 352 93 bng 25 250 50 0 empty empty empty 0 -6 0 8 #285014 #000000 #000000;
#X obj 297 123 vsl 8 30 0 127 0 0 empty empty empty 0 -8 0 8 #285014 #000000 #000000 0 1;
#X obj 297 119 cnv 15 15 15 empty empty empty 20 12 0 14 #285014 #000000 0;
#X obj 347 90 cnv 15 15 40 empty empty empty 20 12 0 14 #285014 #000000 0;
#X obj 305 104 bng 40 250 50 0 empty onalways2 empty 0 -6 0 8 #285014 #e8e828 #000000;
#X obj 314 123 bng 8 250 50 0 empty empty empty 0 -6 0 8 #000000 #000000 #000000;
#X obj 23 248 hsl 50 10 0 127 0 0 empty empty empty -2 -6 0 8 #285014 #fcfcfc #000000 0 1;
#X obj 24 260 hsl 50 10 0 127 0 0 empty empty empty -2 -6 0 8 #285014 #fcfcfc #000000 0 1;
#X obj 26 268 hsl 50 10 0 127 0 0 empty empty empty -2 -6 0 8 #285014 #fcfcfc #000000 0 1;
#X obj 59 262 vsl 15 30 0 127 0 0 empty empty empty 0 -8 0 8 #285014 #fcfcfc #000000 0 1;
#X obj 49 248 cnv 15 30 30 empty empty empty 20 12 0 14 #285014 #404040 0;
#X obj 243 202 hsl 50 10 0 127 0 0 empty empty empty -2 -6 0 8 #285014 #fcfcfc #000000 0 1;
#X obj 278 184 vsl 15 30 0 127 0 0 empty toe empty 0 -8 0 8 #285014 #fcfcfc #000000 0 1;
#X obj 269 202 cnv 15 30 30 empty empty empty 20 12 0 14 #285014 #404040 0;
#X obj 318 147 cnv 15 90 90 empty empty empty 20 12 0 14 #285014 #404040 0;
#X obj 306 144 vsl 15 10 0 127 0 0 empty wen2 empty 0 -8 0 8 #fcfcfc #000000 #000000 0 1;
#X obj 321 144 vsl 15 10 0 127 0 0 empty too2 empty 0 -8 0 8 #fcfcfc #000000 #000000 0 1;
#X obj 336 144 vsl 15 10 0 127 0 0 empty free2 empty 0 -8 0 8 #fcfcfc #000000 #000000 0 1;
#X obj 296 216 cnv 15 30 15 empty empty empty 20 12 0 14 #285014 #404040 0;
#X obj 306 156 cnv 15 45 15 empty empty empty 20 12 0 14 #285014 #404040 0;
#X obj 320 337 hsl 30 15 0 127 0 0 empty toe empty -2 -6 0 8 #285014 #fcfcfc #000000 0 1;
#X obj 342 322 cnv 15 30 30 empty empty empty 20 12 0 14 #285014 #404040 0;
#X obj 354 230 cnv 10 10 100 empty empty empty 20 12 0 14 #285014 #404040 0;
#X obj 338 341 hsl 30 15 0 127 0 0 empty empty empty -2 -6 0 8 #285014 #fcfcfc #000000 0 1;
#X obj 360 326 cnv 15 30 30 empty empty empty 20 12 0 14 #285014 #404040 0;
#X obj 372 234 cnv 10 10 100 empty empty empty 20 12 0 14 #285014 #404040 0;
#X obj 324 171 cnv 10 10 100 empty empty empty 20 12 0 14 #285014 #404040 0;
#X obj 315 272 vsl 8 40 0 127 0 0 empty toe empty 0 -8 0 8 #285014 #fcfcfc #000000 0 1;
#X obj 326 282 vsl 8 40 0 127 0 0 empty toe empty 0 -8 0 8 #285014 #fcfcfc #000000 0 1;
#X obj 337 276 vsl 8 40 0 127 0 0 empty toe empty 0 -8 0 8 #285014 #fcfcfc #000000 0 1;
#X obj 302 263 hsl 30 15 0 127 0 0 empty toe empty -2 -6 0 8 #285014 #fcfcfc #000000 0 1;
#X obj 315 260 cnv 15 30 30 empty empty empty 20 12 0 14 #285014 #404040 0;
