#N canvas 0 0 500 500 ;
#X obj 54 140 osc~ 44;
#X obj 54 56 phasor~ 264;
#X obj 109 56 osc~ 352;
#X obj 81 84 +~;
#X obj 81 112 *~ 0.5;
#X obj 136 112 phasor~ 44;
#X obj 109 140 *~;
#X obj 81 169 +~;
#X obj 81 197 *~ 0.5;
#X obj 81 225 dac~;
#X connect 1 0 3 0;
#X connect 2 0 3 1;
#X connect 3 0 4 0;
#X connect 4 0 6 0;
#X connect 5 0 6 1;
#X connect 0 0 7 0;
#X connect 6 0 7 1;
#X connect 7 0 8 0;
#X connect 8 0 9 0;
#X connect 8 0 9 1;
