#N canvas -65 -864 1566 794 12;
#X obj 91 599 dac~;
#X obj 71 361 hip~ 5;
#X obj 71 328 tabread4~ sample-table;
#X obj 71 296 line~;
#X obj 530 39 loadbang;
#X obj 553 329 soundfiler;
#X obj 71 271 pack f 100;
#X msg 460 111 \; pd dsp 1;
#N canvas 0 0 450 300 (subpatch) 0;
#X array sample-table 67658 float 2;
#X coords 0 1.02 67658 -1.02 200 130 1 0 0;
#X restore 617 521 graph;
#X obj 75 142 hsl 200 19 0 100 0 0 empty empty S -2 -10 0 12 #fcfcfc #000000 #000000 0 1;
#X obj 555 125 hradio 19 1 0 36 empty empty empty 0 -10 0 12 #fcfcfc #000000 #000000 0;
#X obj 71 247 * 441;
#X obj 189 249 / 100;
#X obj 189 275 i;
#X msg 567 87 0;
#X obj 553 353 t b f;
#X obj 555 149 t b f b;
#X obj 562 202 f;
#X obj 554 174 delay 100;
#X obj 86 479 *~ 1;
#X msg 556 297 read -resize ./sounds/\$1.wav sample-table;
#X connect 1 0 19 0;
#X connect 2 0 1 0;
#X connect 3 0 2 0;
#X connect 4 0 14 0;
#X connect 4 0 7 0;
#X connect 5 0 15 0;
#X connect 6 0 3 0;
#X connect 9 0 11 0;
#X connect 10 0 16 0;
#X connect 11 0 6 0;
#X connect 12 0 13 0;
#X connect 13 0 11 1;
#X connect 14 0 10 0;
#X connect 15 1 12 0;
#X connect 16 0 18 0;
#X connect 16 1 17 1;
#X connect 17 0 20 0;
#X connect 18 0 17 0;
#X connect 19 0 0 0;
#X connect 19 0 0 1;
#X connect 20 0 5 0;
