#N canvas -83 -1030 1304 940 12;
#X obj 612 371 hsl 162 19 0 100 0 0 empty \$0-pos-1-r pos -2 -10 0 12 #fcfcfc #000000 #000000 0 1;
#X obj 237 149 tgl 19 0 \$0-bee \$0-bee-r Bee 0 -10 0 10 #fcfcfc #000000 #000000 0 1;
#N canvas 0 38 1728 1051 scrubby 0;
#X obj 172 627 line~;
#X obj 172 578 * 441;
#X obj 172 602 pack f 100;
#X obj 166 453 tabwrite~ sample-table-0;
#X obj 172 659 tabread4~ sample-table-0;
#X obj 175 712 *~;
#X msg 204 374 0;
#X obj 67 537 change;
#X msg 69 376 1;
#X obj 101 298 t b b b b;
#X obj 66 620 vline~;
#X msg 189 419 bang;
#X obj 178 486 table sample-table-0 44100;
#X obj 73 501 f;
#X obj 618 629 line~;
#X obj 618 580 * 441;
#X obj 618 604 pack f 100;
#X obj 621 714 *~;
#X msg 650 376 0;
#X obj 513 539 change;
#X msg 515 378 1;
#X obj 547 300 t b b b b;
#X obj 512 622 vline~;
#X msg 635 421 bang;
#X obj 519 503 f;
#X obj 632 455 tabwrite~ sample-table-1;
#X obj 644 488 table sample-table-1 44100;
#X obj 618 661 tabread4~ sample-table-1;
#X msg 513 570 \$1 500;
#X msg 67 568 \$1 500;
#X obj 107 376 delay 501;
#X obj 553 378 delay 501;
#X obj 395 538 r \$0-switch;
#X obj 322 812 *~;
#X obj 316 776 line~;
#X msg 317 726 1 100;
#X msg 376 728 0 100;
#X obj 445 780 line~;
#X msg 446 730 1 100;
#X msg 505 732 0 100;
#X obj 500 826 *~;
#X msg 388 665 bang;
#X msg 448 665 bang;
#X obj 395 562 sel 0 1;
#X msg 136 253 bang;
#X msg 581 254 bang;
#X obj 467 901 outlet~;
#X obj 481 26 inlet~;
#X obj 1094 47 inlet;
#X obj 874 363 tgl 15 1 empty empty start/stop 17 7 0 10 #fc0400 #000000 #000000 1 1;
#X obj 874 383 metro 2000;
#N canvas 0 65 1728 1052 counter 0;
#X obj 37 37 inlet;
#X msg 125 64 bang;
#X obj 182 88 + 1;
#X obj 125 89 float;
#X obj 182 137 outlet;
#X connect 0 0 1 0;
#X connect 1 0 3 0;
#X connect 2 0 3 1;
#X connect 2 0 4 0;
#X connect 3 0 2 0;
#X restore 874 407 pd counter;
#X obj 874 431 % 2;
#X obj 874 455 change;
#X obj 874 479 s \$0-switch;
#X msg 875 331 1;
#X obj 878 298 loadbang;
#X obj 1332 924 outlet~;
#X obj 1137 617 line~;
#X obj 1137 568 * 441;
#X obj 1137 592 pack f 100;
#X obj 1140 702 *~;
#X msg 1169 364 0;
#X obj 1032 527 change;
#X msg 1034 366 1;
#X obj 1066 288 t b b b b;
#X obj 1031 610 vline~;
#X msg 1154 409 bang;
#X obj 1038 491 f;
#X obj 1583 619 line~;
#X obj 1583 570 * 441;
#X obj 1583 594 pack f 100;
#X obj 1586 704 *~;
#X msg 1615 366 0;
#X obj 1478 529 change;
#X msg 1480 368 1;
#X obj 1512 290 t b b b b;
#X obj 1477 612 vline~;
#X msg 1600 411 bang;
#X obj 1484 493 f;
#X msg 1478 560 \$1 500;
#X msg 1032 558 \$1 500;
#X obj 1072 366 delay 501;
#X obj 1518 368 delay 501;
#X obj 1360 528 r \$0-switch;
#X obj 1287 802 *~;
#X obj 1281 766 line~;
#X msg 1282 716 1 100;
#X msg 1341 718 0 100;
#X obj 1410 770 line~;
#X msg 1411 720 1 100;
#X msg 1470 722 0 100;
#X obj 1465 816 *~;
#X msg 1353 655 bang;
#X msg 1413 655 bang;
#X obj 1360 552 sel 0 1;
#X msg 1101 243 bang;
#X msg 1546 244 bang;
#X obj 580 37 inlet~;
#X obj 1131 443 tabwrite~ sample-table-2;
#X obj 1143 476 table sample-table-2 44100;
#X obj 1137 649 tabread4~ sample-table-2;
#X obj 1597 445 tabwrite~ sample-table-3;
#X obj 1609 478 table sample-table-3 44100;
#X obj 1583 651 tabread4~ sample-table-3;
#X obj 1320 114 r \$0-stereo;
#X obj 1304 57 inlet;
#X obj 1207 114 spigot;
#X obj 1521 846 r \$0-stereo;
#X obj 1355 888 *~;
#X obj 937 799 r \$0-stereo;
#X obj 902 914 *~;
#X obj 937 823 expr 1-$f1;
#X obj 765 264 r \$0-freeze;
#X obj 771 299 expr 1-$f1;
#X obj 959 888 line~;
#X msg 979 857 \$1 100;
#X obj 1499 933 line~;
#X msg 1519 902 \$1 100;
#X obj 38 349 delay 1500;
#X obj 484 351 delay 1500;
#X obj 1003 339 delay 1500;
#X obj 1449 341 delay 1500;
#X connect 0 0 4 0;
#X connect 1 0 2 0;
#X connect 2 0 0 0;
#X connect 4 0 5 0;
#X connect 5 0 33 0;
#X connect 6 0 13 0;
#X connect 7 0 29 0;
#X connect 8 0 13 0;
#X connect 9 1 119 0;
#X connect 9 2 30 0;
#X connect 9 3 6 0;
#X connect 10 0 5 1;
#X connect 11 0 3 0;
#X connect 13 0 7 0;
#X connect 14 0 27 0;
#X connect 15 0 16 0;
#X connect 16 0 14 0;
#X connect 17 0 40 0;
#X connect 18 0 24 0;
#X connect 19 0 28 0;
#X connect 20 0 24 0;
#X connect 21 1 120 0;
#X connect 21 2 31 0;
#X connect 21 3 18 0;
#X connect 22 0 17 1;
#X connect 23 0 25 0;
#X connect 24 0 19 0;
#X connect 27 0 17 0;
#X connect 28 0 22 0;
#X connect 29 0 10 0;
#X connect 30 0 11 0;
#X connect 31 0 23 0;
#X connect 32 0 43 0;
#X connect 33 0 46 0;
#X connect 33 0 111 0;
#X connect 34 0 33 1;
#X connect 35 0 34 0;
#X connect 36 0 34 0;
#X connect 37 0 40 1;
#X connect 38 0 37 0;
#X connect 39 0 37 0;
#X connect 40 0 46 0;
#X connect 40 0 111 0;
#X connect 41 0 35 0;
#X connect 41 0 39 0;
#X connect 41 0 45 0;
#X connect 42 0 36 0;
#X connect 42 0 38 0;
#X connect 42 0 44 0;
#X connect 43 0 41 0;
#X connect 43 1 42 0;
#X connect 44 0 9 0;
#X connect 45 0 21 0;
#X connect 47 0 3 0;
#X connect 47 0 25 0;
#X connect 48 0 15 0;
#X connect 48 0 1 0;
#X connect 49 0 50 0;
#X connect 50 0 51 0;
#X connect 51 0 52 0;
#X connect 52 0 53 0;
#X connect 53 0 54 0;
#X connect 55 0 49 0;
#X connect 56 0 55 0;
#X connect 58 0 101 0;
#X connect 59 0 60 0;
#X connect 60 0 58 0;
#X connect 61 0 85 0;
#X connect 62 0 68 0;
#X connect 63 0 81 0;
#X connect 64 0 68 0;
#X connect 65 1 121 0;
#X connect 65 2 82 0;
#X connect 65 3 62 0;
#X connect 66 0 61 1;
#X connect 67 0 99 0;
#X connect 68 0 63 0;
#X connect 69 0 104 0;
#X connect 70 0 71 0;
#X connect 71 0 69 0;
#X connect 72 0 92 0;
#X connect 73 0 79 0;
#X connect 74 0 80 0;
#X connect 75 0 79 0;
#X connect 76 1 122 0;
#X connect 76 2 83 0;
#X connect 76 3 73 0;
#X connect 77 0 72 1;
#X connect 78 0 102 0;
#X connect 79 0 74 0;
#X connect 80 0 77 0;
#X connect 81 0 66 0;
#X connect 82 0 67 0;
#X connect 83 0 78 0;
#X connect 84 0 95 0;
#X connect 85 0 109 0;
#X connect 86 0 85 1;
#X connect 87 0 86 0;
#X connect 88 0 86 0;
#X connect 89 0 92 1;
#X connect 90 0 89 0;
#X connect 91 0 89 0;
#X connect 92 0 109 0;
#X connect 93 0 87 0;
#X connect 93 0 91 0;
#X connect 93 0 97 0;
#X connect 94 0 88 0;
#X connect 94 0 90 0;
#X connect 94 0 96 0;
#X connect 95 0 93 0;
#X connect 95 1 94 0;
#X connect 96 0 65 0;
#X connect 97 0 76 0;
#X connect 98 0 99 0;
#X connect 98 0 102 0;
#X connect 101 0 61 0;
#X connect 104 0 72 0;
#X connect 105 0 107 1;
#X connect 106 0 107 0;
#X connect 107 0 70 0;
#X connect 107 0 59 0;
#X connect 108 0 118 0;
#X connect 109 0 57 0;
#X connect 110 0 112 0;
#X connect 111 0 57 0;
#X connect 112 0 116 0;
#X connect 113 0 114 0;
#X connect 114 0 49 0;
#X connect 115 0 111 1;
#X connect 116 0 115 0;
#X connect 117 0 109 1;
#X connect 118 0 117 0;
#X connect 119 0 8 0;
#X connect 120 0 20 0;
#X connect 121 0 64 0;
#X connect 122 0 75 0;
#X restore 542 497 pd scrubby;
#X obj 1102 145 print;
#X msg 1102 121 ?;
#X obj 527 581 hip~ 5;
#X obj 120 238 hsl 162 19 0 100 0 0 \$0-min \$0-min-r minSeek -2 -10 0 10 #fcfcfc #000000 #000000 0 1;
#X obj 120 278 hsl 162 19 0 100 0 0 \$0-max \$0-max-r maxSeek -2 -10 0 10 #fcfcfc #000000 #000000 0 1;
#X obj 120 198 hsl 162 19 666 1 0 0 \$0-rate \$0-rate-r rateSeek -2 -10 0 10 #fcfcfc #000000 #000000 0 1;
#X obj 120 318 hsl 162 19 666 1 0 0 \$0-speed \$0-speed-r speed -2 -10 0 10 #fcfcfc #000000 #000000 0 1;
#X obj 120 358 hsl 162 19 0 1 0 0 \$0-dryWet \$0-dryWet-r dryWet -2 -10 0 10 #fcfcfc #000000 #000000 0 1;
#X obj 645 674 *~;
#X obj 685 674 *~;
#X obj 435 724 *~;
#X obj 475 724 *~;
#X obj 541 673 expr 1-$f1;
#X obj 440 308 *~ 1;
#X obj 726 535 r \$0-dryWet;
#X obj 726 590 line;
#X msg 726 559 \$1 100;
#X obj 587 581 hip~ 5;
#X obj 610 459 r \$0-pos-2-r;
#X obj 197 149 tgl 19 0 \$0-stereo \$0-stereo-r st 3 -10 0 10 #fcfcfc #000000 #000000 0 1;
#X obj 157 149 tgl 19 0 \$0-freeze \$0-freeze-r freeze -6 -10 0 10 #fcfcfc #000000 #000000 0 1;
#X obj 722 459 r \$0-freeze;
#N canvas 717 -754 1120 611 init 0;
#X obj 208 126 metro 1000;
#X obj 208 150 s \$0-random-pos;
#X obj 275 94 r \$0-rate;
#X obj 207 73 i 1;
#X obj 107 159 s \$0-dryWet-r;
#X obj 134 218 s \$0-stereo-r;
#X obj 177 73 i 0;
#X obj 46 263 s \$0-max-r;
#X obj 176 269 s \$0-min-r;
#X obj 46 172 i 100;
#X obj 296 284 s \$0-freeze-r;
#X obj 406 136 s \$0-speed-r;
#X obj 499 137 s \$0-rate-r;
#X obj 445 241 s \$0-robot-r;
#X obj 205 0 loadbang;
#X obj 206 32 t b b;
#X msg 421 190 0;
#X msg 425 90 100;
#X msg 495 93 150;
#X connect 0 0 1 0;
#X connect 2 0 0 1;
#X connect 3 0 0 0;
#X connect 3 0 4 0;
#X connect 6 0 5 0;
#X connect 6 0 8 0;
#X connect 6 0 10 0;
#X connect 9 0 7 0;
#X connect 14 0 15 0;
#X connect 15 0 3 0;
#X connect 15 0 6 0;
#X connect 15 0 9 0;
#X connect 15 0 17 0;
#X connect 15 0 18 0;
#X connect 15 1 16 0;
#X connect 16 0 13 0;
#X connect 17 0 11 0;
#X connect 18 0 12 0;
#X restore 1102 70 pd init;
#X obj 117 149 tgl 19 0 \$0-robot \$0-robot-r Robot -5 -10 0 10 #fcfcfc #000000 #000000 0 1;
#X obj 480 308 *~ 1;
#N canvas 0 38 1728 1051 logic 0;
#X obj 584 741 random 100;
#X obj 583 717 bng 19 250 50 0 empty empty empty 0 -10 0 12 #fcfcfc #000000 #000000;
#X obj 584 783 pack f f;
#X obj 637 650 metro 500;
#X obj 585 817 line;
#X obj 664 741 random 1000;
#X obj 1328 289 r \$0-min;
#X obj 1310 318 +;
#X obj 1412 91 r \$0-min;
#X obj 1339 211 -;
#X obj 1337 57 r \$0-max;
#X obj 1293 264 random 100;
#X obj 1383 166 f;
#X obj 1339 164 f;
#X obj 1337 81 t f b;
#X obj 1412 115 t b f;
#X obj 1211 182 r \$0-random-pos;
#X obj 895 773 pack f f;
#X obj 896 807 line;
#X obj 841 710 t f b;
#X obj 948 744 f 1000;
#X obj 660 695 random 2000;
#X obj 903 851 s \$0-pos-1-r;
#X obj 1428 289 r \$0-min;
#X obj 1410 318 +;
#X obj 1393 264 random 100;
#X obj 841 686 r \$0-pos-1-r-r;
#X obj 1295 362 s \$0-pos-1-r-r;
#X obj 1405 362 s \$0-pos-2-r-r;
#X obj 1128 761 pack f f;
#X obj 1129 795 line;
#X obj 1074 698 t f b;
#X obj 1181 732 f 1000;
#X obj 1074 674 r \$0-pos-2-r-r;
#X obj 1136 839 s \$0-pos-2-r;
#X obj 1466 199 r \$0-stereo;
#X obj 1427 229 spigot;
#X obj 1147 462 r \$0-robot;
#X obj 583 865 s \$0-pos-1-r;
#X obj 1108 594 spigot;
#X obj 994 391 r \$0-speed;
#X obj 1104 459 / 20;
#X obj 1106 554 f;
#X obj 1169 555 sel 1;
#X obj 1004 505 expr 1-$f1;
#X obj 970 595 spigot;
#X obj 954 553 f;
#X obj 1037 584 bng 19 250 50 0 empty empty empty 0 -10 0 12 #fcfcfc #000000 #000000;
#X obj 1026 539 sel 1;
#X obj 630 610 r \$0-bee;
#X connect 0 0 2 0;
#X connect 1 0 0 0;
#X connect 1 0 5 0;
#X connect 2 0 4 0;
#X connect 3 0 1 0;
#X connect 3 0 21 0;
#X connect 4 0 38 0;
#X connect 5 0 2 1;
#X connect 6 0 7 1;
#X connect 7 0 27 0;
#X connect 8 0 15 0;
#X connect 9 0 11 1;
#X connect 9 0 25 1;
#X connect 10 0 14 0;
#X connect 11 0 7 0;
#X connect 12 0 9 1;
#X connect 13 0 9 0;
#X connect 14 0 13 0;
#X connect 14 1 12 0;
#X connect 15 0 13 0;
#X connect 15 1 12 0;
#X connect 16 0 11 0;
#X connect 16 0 36 0;
#X connect 17 0 18 0;
#X connect 18 0 22 0;
#X connect 19 0 17 0;
#X connect 19 1 20 0;
#X connect 20 0 17 1;
#X connect 21 0 3 1;
#X connect 23 0 24 1;
#X connect 24 0 28 0;
#X connect 25 0 24 0;
#X connect 26 0 19 0;
#X connect 29 0 30 0;
#X connect 30 0 34 0;
#X connect 31 0 29 0;
#X connect 31 1 32 0;
#X connect 32 0 29 1;
#X connect 33 0 31 0;
#X connect 35 0 36 1;
#X connect 36 0 25 0;
#X connect 37 0 44 0;
#X connect 37 0 39 1;
#X connect 37 0 43 0;
#X connect 39 0 20 1;
#X connect 39 0 32 1;
#X connect 40 0 41 0;
#X connect 40 0 46 0;
#X connect 41 0 42 0;
#X connect 42 0 39 0;
#X connect 43 0 42 0;
#X connect 44 0 45 1;
#X connect 44 0 48 0;
#X connect 45 0 20 1;
#X connect 45 0 32 1;
#X connect 46 0 45 0;
#X connect 48 0 46 0;
#X connect 48 0 47 0;
#X connect 49 0 3 0;
#X restore 1102 95 pd logic;
#X text 642 193 2024 jankenpopp.com;
#X text 641 162 please enjoy :);
#X text 642 133 I tried to re-create the famous Scrubby vst by DFX.;
#X obj 497 84 adc~;
#X obj 559 801 dac~;
#X connect 0 0 2 2;
#X connect 2 0 5 0;
#X connect 2 1 20 0;
#X connect 4 0 3 0;
#X connect 5 0 11 0;
#X connect 11 0 33 0;
#X connect 12 0 33 1;
#X connect 13 0 33 0;
#X connect 14 0 33 1;
#X connect 15 0 14 1;
#X connect 15 0 13 1;
#X connect 16 0 2 0;
#X connect 16 0 13 0;
#X connect 17 0 19 0;
#X connect 18 0 11 1;
#X connect 18 0 12 1;
#X connect 18 0 15 0;
#X connect 19 0 18 0;
#X connect 20 0 12 0;
#X connect 21 0 2 3;
#X connect 27 0 2 1;
#X connect 27 0 14 0;
#X connect 32 0 27 0;
#X connect 32 0 16 0;
#X coords 0 -1 1 1 200 300 1 100 100;
