#N canvas 12 -950 1596 745 10;
#X obj 1 0 cnv 15 300 200 empty empty JAZZMAN 20 12 0 14 #f8d8fc #404040 0;
#X obj 1 31 cnv 15 300 48 empty empty empty 20 12 0 14 #dce4fc #404040 0;
#X obj 1 86 cnv 15 300 48 empty empty empty 20 12 0 14 #dce4fc #404040 0;
#X obj 2 143 cnv 15 300 48 empty empty empty 20 12 0 14 #dce4fc #404040 0;
#X obj 594 382 vsl 12 32 0 1 0 0 empty empty Kick 0 -8 0 8 #14e814 #000000 #000000 0 1;
#X obj 624 385 vsl 12 32 0 1 0 0 empty empty HH 0 -8 0 8 #fc2828 #000000 #000000 0 1;
#X obj 662 384 vsl 12 32 0 1 0 0 empty empty Snare 0 -8 0 8 #fcac44 #000000 #000000 0 1;
#X obj 946 450 vsl 12 32 0.5 2 0 0 empty empty busy 0 -8 0 8 #e8e828 #000000 #000000 0 1;
#X obj 994 449 vsl 12 32 0.3 1.2 0 0 empty empty swing 0 -8 0 8 #fcac44 #000000 #000000 0 1;
#X obj 902 449 vsl 12 32 50 500 0 0 empty empty speed 0 -8 0 8 #28f4f4 #000000 #000000 0 1;
#X obj 278 440 vsl 12 32 1 8 0 0 empty empty hihat_steps 0 -8 0 8 #fce0e0 #000000 #000000 0 1;
#X obj 216 442 vsl 12 32 1 12 0 0 empty empty snare_runs 0 -8 0 8 #fce0c0 #000000 #000000 0 1;
#X obj 133 443 vsl 12 32 1 12 0 0 empty empty kick_runs 0 -8 0 8 #d8fcd8 #000000 #000000 0 1;
#X obj 1318 342 vsl 12 32 1 4 1 0 empty empty distort 0 -8 0 8 #f430f0 #000000 #000000 0 1;
#X obj 1129 377 vsl 12 32 70 4000 0 0 empty empty F 0 -8 0 8 #28f4f4 #000000 #000000 0 1;
#X obj 1228 360 vsl 12 32 0.1 6 1 0 empty empty Q 0 -8 0 8 #3c50fc #000000 #000000 0 1;
#X obj 1418 337 vsl 12 32 0 1 0 0 empty empty vol 0 -8 0 8 #fcfcc8 #000000 #000000 0 1;
#X obj 944 632 s \$0-busy;
#X obj 1028 630 s \$0-swing;
#X obj 807 603 s \$0-speed;
#X obj 361 563 s \$0-hhsteps;
#X obj 153 562 s \$0-kicksteps;
#X obj 258 565 s \$0-snaresteps;
#X obj 653 563 s \$0-snarel;
#X obj 1235 504 s \$0-filq;
#X obj 549 561 s \$0-kickl;
#X obj 1108 508 s \$0-filf;
#X obj 622 606 s \$0-hhl;
#X obj 1416 401 s \$0-mainvol;
#X msg 636 273 0.5;
#N canvas 1048 -978 731 922 gubbins 0;
#N canvas 841 147 547 618 loadsamples 0;
#X obj 137 989 soundfiler;
#X msg 187 44 read -resize ./sounds/jazz/sound1.wav #0-drum1;
#X msg 203 82 read -resize ./sounds/jazz/sound2.wav #0-drum2;
#X msg 216 116 read -resize ./sounds/jazz/sound3.wav #0-drum3;
#X msg 229 144 read -resize ./sounds/jazz/sound4.wav #0-drum4;
#X msg 246 180 read -resize ./sounds/jazz/sound5.wav #0-drum5;
#X msg 269 216 read -resize ./sounds/jazz/sound6.wav #0-drum6;
#X msg 286 248 read -resize ./sounds/jazz/sound7.wav #0-drum7;
#X msg 300 282 read -resize ./sounds/jazz/sound8.wav #0-drum8;
#X msg 311 317 read -resize ./sounds/jazz/sound9.wav #0-drum9;
#X msg 326 354 read -resize ./sounds/jazz/sound10.wav #0-drum10;
#X msg 340 387 read -resize ./sounds/jazz/sound11.wav #0-drum11;
#X msg 349 418 read -resize ./sounds/jazz/sound12.wav #0-drum12;
#X msg 365 446 read -resize ./sounds/jazz/sound13.wav #0-drum13;
#X msg 378 478 read -resize ./sounds/jazz/sound14.wav #0-drum14;
#X msg 391 505 read -resize ./sounds/jazz/sound15.wav #0-drum15;
#X msg 405 536 read -resize ./sounds/jazz/sound16.wav #0-drum16;
#X msg 426 568 read -resize ./sounds/jazz/sound17.wav #0-drum17;
#X msg 439 596 read -resize ./sounds/jazz/sound18.wav #0-drum18;
#X msg 478 623 read -resize ./sounds/jazz/sound19.wav #0-drum19;
#X msg 506 651 read -resize ./sounds/jazz/sound20.wav #0-drum20;
#X msg 534 679 read -resize ./sounds/jazz/sound21.wav #0-drum21;
#X msg 565 708 read -resize ./sounds/jazz/sound22.wav #0-drum22;
#X msg 589 736 read -resize ./sounds/jazz/sound23.wav #0-drum23;
#X msg 614 767 read -resize ./sounds/jazz/sound24.wav #0-drum24;
#X msg 645 798 read -resize ./sounds/jazz/sound25.wav #0-drum25;
#X msg 668 829 read -resize ./sounds/jazz/sound26.wav #0-drum26;
#X msg 688 856 read -resize ./sounds/jazz/sound27.wav #0-drum27;
#X msg 699 886 read -resize ./sounds/jazz/sound28.wav #0-drum28;
#X msg 726 910 read -resize ./sounds/jazz/sound29.wav #0-drum29;
#X msg 729 941 read -resize ./sounds/jazz/sound30.wav #0-drum30;
#X msg 706 965 read -resize ./sounds/jazz/sound31.wav #0-drum31;
#X obj 49 592 loadbang;
#X connect 1 0 0 0;
#X connect 2 0 0 0;
#X connect 3 0 0 0;
#X connect 4 0 0 0;
#X connect 5 0 0 0;
#X connect 6 0 0 0;
#X connect 7 0 0 0;
#X connect 8 0 0 0;
#X connect 9 0 0 0;
#X connect 10 0 0 0;
#X connect 11 0 0 0;
#X connect 12 0 0 0;
#X connect 13 0 0 0;
#X connect 14 0 0 0;
#X connect 15 0 0 0;
#X connect 16 0 0 0;
#X connect 17 0 0 0;
#X connect 18 0 0 0;
#X connect 19 0 0 0;
#X connect 20 0 0 0;
#X connect 21 0 0 0;
#X connect 22 0 0 0;
#X connect 23 0 0 0;
#X connect 24 0 0 0;
#X connect 25 0 0 0;
#X connect 26 0 0 0;
#X connect 27 0 0 0;
#X connect 28 0 0 0;
#X connect 29 0 0 0;
#X connect 30 0 0 0;
#X connect 31 0 0 0;
#X connect 32 0 1 0;
#X connect 32 0 2 0;
#X connect 32 0 3 0;
#X connect 32 0 4 0;
#X connect 32 0 5 0;
#X connect 32 0 6 0;
#X connect 32 0 7 0;
#X connect 32 0 8 0;
#X connect 32 0 9 0;
#X connect 32 0 10 0;
#X connect 32 0 11 0;
#X connect 32 0 12 0;
#X connect 32 0 13 0;
#X connect 32 0 14 0;
#X connect 32 0 15 0;
#X connect 32 0 16 0;
#X connect 32 0 17 0;
#X connect 32 0 18 0;
#X connect 32 0 19 0;
#X connect 32 0 20 0;
#X connect 32 0 21 0;
#X connect 32 0 22 0;
#X connect 32 0 23 0;
#X connect 32 0 24 0;
#X connect 32 0 25 0;
#X connect 32 0 26 0;
#X connect 32 0 27 0;
#X connect 32 0 28 0;
#X connect 32 0 29 0;
#X connect 32 0 30 0;
#X connect 32 0 31 0;
#X restore 408 41 pd loadsamples;
#N canvas 788 806 700 225 tables 0;
#X obj 8 13 table #0-drum0 2048;
#X obj 8 33 table #0-drum1 2048;
#X obj 8 53 table #0-drum2 2048;
#X obj 8 72 table #0-drum3 2048;
#X obj 8 91 table #0-drum4 2048;
#X obj 8 111 table #0-drum5 2048;
#X obj 8 130 table #0-drum6 2048;
#X obj 8 150 table #0-drum7 2048;
#X obj 182 14 table #0-drum8 2048;
#X obj 182 34 table #0-drum9 2048;
#X obj 182 54 table #0-drum10 2048;
#X obj 182 73 table #0-drum11 2048;
#X obj 182 92 table #0-drum12 2048;
#X obj 182 112 table #0-drum13 2048;
#X obj 182 131 table #0-drum14 2048;
#X obj 182 151 table #0-drum15 2048;
#X obj 354 12 table #0-drum16 2048;
#X obj 354 32 table #0-drum17 2048;
#X obj 354 52 table #0-drum18 2048;
#X obj 354 71 table #0-drum19 2048;
#X obj 354 90 table #0-drum20 2048;
#X obj 354 110 table #0-drum21 2048;
#X obj 354 129 table #0-drum22 2048;
#X obj 354 149 table #0-drum23 2048;
#X obj 515 11 table #0-drum24 2048;
#X obj 515 31 table #0-drum25 2048;
#X obj 514 51 table #0-drum26 2048;
#X obj 515 70 table #0-drum27 2048;
#X obj 514 88 table #0-drum28 2048;
#X obj 515 109 table #0-drum29 2048;
#X obj 515 128 table #0-drum30 2048;
#X obj 515 148 table #0-drum31 2048;
#X restore 406 64 pd tables;
#X obj 273 514 random 16;
#N canvas 117 282 1520 807 playeri1 0;
#X obj 1321 207 hip~ 5;
#X obj 1321 154 vline~;
#X obj 1321 182 tabread4~;
#X obj 1321 231 *~ 0.5;
#X obj 1254 124 r i1snum;
#X obj 1321 124 r i1phase;
#X obj 1397 38 inlet;
#X text 1387 17 vol;
#X obj 42 88 max 0;
#X obj 42 120 min 31;
#X obj 40 46 inlet;
#X text 36 23 note/sound;
#X text 101 -16 i1;
#X obj 1319 263 outlet~;
#X msg 253 334 \; i1snum set #0-drum0 \; i1phase 1 \, 4.41e+08 1e+07 \;;
#X msg 273 374 \; i1snum set #0-drum1 \; i1phase 1 \, 4.41e+08 1e+07 \;;
#X msg 283 414 \; i1snum set #0-drum2 \; i1phase 1 \, 4.41e+08 1e+07 \;;
#X msg 293 454 \; i1snum set #0-drum3 \; i1phase 1 \, 4.41e+08 1e+07 \;;
#X msg 303 494 \; i1snum set #0-drum4 \; i1phase 1 \, 4.41e+08 1e+07 \;;
#X msg 323 534 \; i1snum set #0-drum5 \; i1phase 1 \, 4.41e+08 1e+07 \;;
#X msg 343 574 \; i1snum set #0-drum6 \; i1phase 1 \, 4.41e+08 1e+07 \;;
#X msg 353 614 \; i1snum set #0-drum7 \; i1phase 1 \, 4.41e+08 1e+07 \;;
#X msg 518 344 \; i1snum set #0-drum8 \; i1phase 1 \, 4.41e+08 1e+07 \;;
#X msg 527 385 \; i1snum set #0-drum9 \; i1phase 1 \, 4.41e+08 1e+07 \;;
#X msg 538 426 \; i1snum set #0-drum10 \; i1phase 1 \, 4.41e+08 1e+07 \;;
#X msg 548 466 \; i1snum set #0-drum11 \; i1phase 1 \, 4.41e+08 1e+07 \;;
#X msg 558 506 \; i1snum set #0-drum12 \; i1phase 1 \, 4.41e+08 1e+07 \;;
#X msg 568 546 \; i1snum set #0-drum13 \; i1phase 1 \, 4.41e+08 1e+07 \;;
#X msg 588 586 \; i1snum set #0-drum14 \; i1phase 1 \, 4.41e+08 1e+07 \;;
#X msg 608 626 \; i1snum set #0-drum15 \; i1phase 1 \, 4.41e+08 1e+07 \;;
#X msg 762 339 \; i1snum set #0-drum16 \; i1phase 1 \, 4.41e+08 1e+07 \;;
#X msg 772 379 \; i1snum set #0-drum17 \; i1phase 1 \, 4.41e+08 1e+07 \;;
#X msg 783 420 \; i1snum set #0-drum18 \; i1phase 1 \, 4.41e+08 1e+07 \;;
#X msg 793 460 \; i1snum set #0-drum19 \; i1phase 1 \, 4.41e+08 1e+07 \;;
#X msg 803 500 \; i1snum set #0-drum20 \; i1phase 1 \, 4.41e+08 1e+07 \;;
#X msg 813 540 \; i1snum set #0-drum21 \; i1phase 1 \, 4.41e+08 1e+07 \;;
#X msg 833 580 \; i1snum set #0-drum22 \; i1phase 1 \, 4.41e+08 1e+07 \;;
#X msg 853 620 \; i1snum set #0-drum23 \; i1phase 1 \, 4.41e+08 1e+07 \;;
#X msg 1015 335 \; i1snum set #0-drum24 \; i1phase 1 \, 4.41e+08 1e+07 \;;
#X msg 1025 375 \; i1snum set #0-drum25 \; i1phase 1 \, 4.41e+08 1e+07 \;;
#X msg 1036 416 \; i1snum set #0-drum26 \; i1phase 1 \, 4.41e+08 1e+07 \;;
#X msg 1046 456 \; i1snum set #0-drum27 \; i1phase 1 \, 4.41e+08 1e+07 \;;
#X msg 1056 496 \; i1snum set #0-drum28 \; i1phase 1 \, 4.41e+08 1e+07 \;;
#X msg 1066 536 \; i1snum set #0-drum29 \; i1phase 1 \, 4.41e+08 1e+07 \;;
#X msg 1086 576 \; i1snum set #0-drum30 \; i1phase 1 \, 4.41e+08 1e+07 \;;
#X msg 1106 616 \; i1snum set #0-drum31 \; i1phase 1 \, 4.41e+08 1e+07 \;;
#X obj 821 63 sel 0 1 2 3 4 5 6 7 8 9 10 11 12 13 14 15 16 17 18 19 20 21 22 23 24 25 26 27 28 29 30 31;
#X connect 0 0 3 0;
#X connect 1 0 2 0;
#X connect 2 0 0 0;
#X connect 3 0 13 0;
#X connect 4 0 2 0;
#X connect 5 0 1 0;
#X connect 6 0 3 1;
#X connect 8 0 9 0;
#X connect 9 0 46 0;
#X connect 10 0 8 0;
#X connect 46 0 14 0;
#X connect 46 1 15 0;
#X connect 46 2 16 0;
#X connect 46 3 17 0;
#X connect 46 4 18 0;
#X connect 46 5 19 0;
#X connect 46 6 20 0;
#X connect 46 7 21 0;
#X connect 46 8 22 0;
#X connect 46 9 23 0;
#X connect 46 10 24 0;
#X connect 46 11 25 0;
#X connect 46 12 26 0;
#X connect 46 13 27 0;
#X connect 46 14 28 0;
#X connect 46 15 29 0;
#X connect 46 16 30 0;
#X connect 46 17 31 0;
#X connect 46 18 32 0;
#X connect 46 19 33 0;
#X connect 46 20 34 0;
#X connect 46 21 35 0;
#X connect 46 22 36 0;
#X connect 46 23 37 0;
#X connect 46 24 38 0;
#X connect 46 25 39 0;
#X connect 46 26 40 0;
#X connect 46 27 41 0;
#X connect 46 28 42 0;
#X connect 46 29 43 0;
#X connect 46 30 44 0;
#X connect 46 31 45 0;
#X restore 444 681 pd playeri1;
#X obj 213 254 f;
#X obj 242 254 + 1;
#X obj 445 533 sel 0;
#X obj 438 452 sel 5 13;
#X obj 445 553 random 7;
#X obj 110 479 + 16;
#X obj 445 510 random 2;
#X obj 445 575 + 25;
#X obj 214 348 mod 16;
#X obj 213 278 / 2;
#X obj 213 300 int;
#X obj 214 321 change;
#N canvas 364 108 1339 728 playeri3 0;
#X obj 1321 207 hip~ 5;
#X obj 1321 154 vline~;
#X obj 1321 182 tabread4~;
#X obj 1321 231 *~ 0.5;
#X obj 1254 124 r i3snum;
#X obj 1321 124 r i3phase;
#X obj 1397 38 inlet;
#X text 1387 17 vol;
#X obj 42 88 max 0;
#X obj 42 120 min 31;
#X obj 40 46 inlet;
#X text 36 23 note/sound;
#X text 101 -16 i1;
#X obj 1319 263 outlet~;
#X msg 253 334 \; i3snum set #0-drum0 \; i3phase 1 \, 4.41e+08 1e+07 \;;
#X msg 273 374 \; i3snum set #0-drum1 \; i3phase 1 \, 4.41e+08 1e+07 \;;
#X msg 283 414 \; i3snum set #0-drum2 \; i3phase 1 \, 4.41e+08 1e+07 \;;
#X msg 293 454 \; i3snum set #0-drum3 \; i3phase 1 \, 4.41e+08 1e+07 \;;
#X msg 303 494 \; i3snum set #0-drum4 \; i3phase 1 \, 4.41e+08 1e+07 \;;
#X msg 323 534 \; i3snum set #0-drum5 \; i3phase 1 \, 4.41e+08 1e+07 \;;
#X msg 343 574 \; i3snum set #0-drum6 \; i3phase 1 \, 4.41e+08 1e+07 \;;
#X msg 353 614 \; i3snum set #0-drum7 \; i3phase 1 \, 4.41e+08 1e+07 \;;
#X msg 518 344 \; i3snum set #0-drum8 \; i3phase 1 \, 4.41e+08 1e+07 \;;
#X msg 527 385 \; i3snum set #0-drum9 \; i3phase 1 \, 4.41e+08 1e+07 \;;
#X msg 538 426 \; i3snum set #0-drum10 \; i3phase 1 \, 4.41e+08 1e+07 \;;
#X msg 548 466 \; i3snum set #0-drum11 \; i3phase 1 \, 4.41e+08 1e+07 \;;
#X msg 558 506 \; i3snum set #0-drum12 \; i3phase 1 \, 4.41e+08 1e+07 \;;
#X msg 568 546 \; i3snum set #0-drum13 \; i3phase 1 \, 4.41e+08 1e+07 \;;
#X msg 588 586 \; i3snum set #0-drum14 \; i3phase 1 \, 4.41e+08 1e+07 \;;
#X msg 608 626 \; i3snum set #0-drum15 \; i3phase 1 \, 4.41e+08 1e+07 \;;
#X msg 762 339 \; i3snum set #0-drum16 \; i3phase 1 \, 4.41e+08 1e+07 \;;
#X msg 772 379 \; i3snum set #0-drum17 \; i3phase 1 \, 4.41e+08 1e+07 \;;
#X msg 783 420 \; i3snum set #0-drum18 \; i3phase 1 \, 4.41e+08 1e+07 \;;
#X msg 793 460 \; i3snum set #0-drum19 \; i3phase 1 \, 4.41e+08 1e+07 \;;
#X msg 803 500 \; i3snum set #0-drum20 \; i3phase 1 \, 4.41e+08 1e+07 \;;
#X msg 813 540 \; i3snum set #0-drum21 \; i3phase 1 \, 4.41e+08 1e+07 \;;
#X msg 833 580 \; i3snum set #0-drum22 \; i3phase 1 \, 4.41e+08 1e+07 \;;
#X msg 853 620 \; i3snum set #0-drum23 \; i3phase 1 \, 4.41e+08 1e+07 \;;
#X msg 1015 335 \; i3snum set #0-drum24 \; i3phase 1 \, 4.41e+08 1e+07 \;;
#X msg 1025 375 \; i3snum set #0-drum25 \; i3phase 1 \, 4.41e+08 1e+07 \;;
#X msg 1036 416 \; i3snum set #0-drum26 \; i3phase 1 \, 4.41e+08 1e+07 \;;
#X msg 1046 456 \; i3snum set #0-drum27 \; i3phase 1 \, 4.41e+08 1e+07 \;;
#X msg 1056 496 \; i3snum set #0-drum28 \; i3phase 1 \, 4.41e+08 1e+07 \;;
#X msg 1066 536 \; i3snum set #0-drum29 \; i3phase 1 \, 4.41e+08 1e+07 \;;
#X msg 1086 576 \; i3snum set #0-drum30 \; i3phase 1 \, 4.41e+08 1e+07 \;;
#X msg 1106 616 \; i3snum set #0-drum31 \; i3phase 1 \, 4.41e+08 1e+07 \;;
#X obj 821 63 sel 0 1 2 3 4 5 6 7 8 9 10 11 12 13 14 15 16 17 18 19 20 21 22 23 24 25 26 27 28 29 30 31;
#X connect 0 0 3 0;
#X connect 1 0 2 0;
#X connect 2 0 0 0;
#X connect 3 0 13 0;
#X connect 4 0 2 0;
#X connect 5 0 1 0;
#X connect 6 0 3 1;
#X connect 8 0 9 0;
#X connect 9 0 46 0;
#X connect 10 0 8 0;
#X connect 46 0 14 0;
#X connect 46 1 15 0;
#X connect 46 2 16 0;
#X connect 46 3 17 0;
#X connect 46 4 18 0;
#X connect 46 5 19 0;
#X connect 46 6 20 0;
#X connect 46 7 21 0;
#X connect 46 8 22 0;
#X connect 46 9 23 0;
#X connect 46 10 24 0;
#X connect 46 11 25 0;
#X connect 46 12 26 0;
#X connect 46 13 27 0;
#X connect 46 14 28 0;
#X connect 46 15 29 0;
#X connect 46 16 30 0;
#X connect 46 17 31 0;
#X connect 46 18 32 0;
#X connect 46 19 33 0;
#X connect 46 20 34 0;
#X connect 46 21 35 0;
#X connect 46 22 36 0;
#X connect 46 23 37 0;
#X connect 46 24 38 0;
#X connect 46 25 39 0;
#X connect 46 26 40 0;
#X connect 46 27 41 0;
#X connect 46 28 42 0;
#X connect 46 29 43 0;
#X connect 46 30 44 0;
#X connect 46 31 45 0;
#X restore 273 675 pd playeri3;
#N canvas 0 38 1728 1051 playeri2 0;
#X obj 1321 207 hip~ 5;
#X obj 1321 154 vline~;
#X obj 1321 182 tabread4~;
#X obj 1321 231 *~ 0.5;
#X obj 1254 124 r i2snum;
#X obj 1321 124 r i2phase;
#X obj 1397 38 inlet;
#X text 1387 17 vol;
#X obj 42 88 max 0;
#X obj 42 120 min 31;
#X obj 40 46 inlet;
#X text 36 23 note/sound;
#X text 101 -16 i1;
#X obj 1319 263 outlet~;
#X msg 253 334 \; i2snum set #0-drum0 \; i2phase 1 \, 4.41e+08 1e+07 \;;
#X msg 273 374 \; i2snum set #0-drum1 \; i2phase 1 \, 4.41e+08 1e+07 \;;
#X msg 283 414 \; i2snum set #0-drum2 \; i2phase 1 \, 4.41e+08 1e+07 \;;
#X msg 293 454 \; i2snum set #0-drum3 \; i2phase 1 \, 4.41e+08 1e+07 \;;
#X msg 303 494 \; i2snum set #0-drum4 \; i2phase 1 \, 4.41e+08 1e+07 \;;
#X msg 323 534 \; i2snum set #0-drum5 \; i2phase 1 \, 4.41e+08 1e+07 \;;
#X msg 343 574 \; i2snum set #0-drum6 \; i2phase 1 \, 4.41e+08 1e+07 \;;
#X msg 353 614 \; i2snum set #0-drum7 \; i2phase 1 \, 4.41e+08 1e+07 \;;
#X msg 518 344 \; i2snum set #0-drum8 \; i2phase 1 \, 4.41e+08 1e+07 \;;
#X msg 527 385 \; i2snum set #0-drum9 \; i2phase 1 \, 4.41e+08 1e+07 \;;
#X msg 538 426 \; i2snum set #0-drum10 \; i2phase 1 \, 4.41e+08 1e+07 \;;
#X msg 548 466 \; i2snum set #0-drum11 \; i2phase 1 \, 4.41e+08 1e+07 \;;
#X msg 558 506 \; i2snum set #0-drum12 \; i2phase 1 \, 4.41e+08 1e+07 \;;
#X msg 568 546 \; i2snum set #0-drum13 \; i2phase 1 \, 4.41e+08 1e+07 \;;
#X msg 588 586 \; i2snum set #0-drum14 \; i2phase 1 \, 4.41e+08 1e+07 \;;
#X msg 608 626 \; i2snum set #0-drum15 \; i2phase 1 \, 4.41e+08 1e+07 \;;
#X msg 762 339 \; i2snum set #0-drum16 \; i2phase 1 \, 4.41e+08 1e+07 \;;
#X msg 772 379 \; i2snum set #0-drum17 \; i2phase 1 \, 4.41e+08 1e+07 \;;
#X msg 783 420 \; i2snum set #0-drum18 \; i2phase 1 \, 4.41e+08 1e+07 \;;
#X msg 793 460 \; i2snum set #0-drum19 \; i2phase 1 \, 4.41e+08 1e+07 \;;
#X msg 803 500 \; i2snum set #0-drum20 \; i2phase 1 \, 4.41e+08 1e+07 \;;
#X msg 813 540 \; i2snum set #0-drum21 \; i2phase 1 \, 4.41e+08 1e+07 \;;
#X msg 833 580 \; i2snum set #0-drum22 \; i2phase 1 \, 4.41e+08 1e+07 \;;
#X msg 853 620 \; i2snum set #0-drum23 \; i2phase 1 \, 4.41e+08 1e+07 \;;
#X msg 1015 335 \; i2snum set #0-drum24 \; i2phase 1 \, 4.41e+08 1e+07 \;;
#X msg 1025 375 \; i2snum set #0-drum25 \; i2phase 1 \, 4.41e+08 1e+07 \;;
#X msg 1036 416 \; i2snum set #0-drum26 \; i2phase 1 \, 4.41e+08 1e+07 \;;
#X msg 1046 456 \; i2snum set #0-drum27 \; i2phase 1 \, 4.41e+08 1e+07 \;;
#X msg 1056 496 \; i2snum set #0-drum28 \; i2phase 1 \, 4.41e+08 1e+07 \;;
#X msg 1066 536 \; i2snum set #0-drum29 \; i2phase 1 \, 4.41e+08 1e+07 \;;
#X msg 1086 576 \; i2snum set #0-drum30 \; i2phase 1 \, 4.41e+08 1e+07 \;;
#X msg 1106 616 \; i2snum set #0-drum31 \; i2phase 1 \, 4.41e+08 1e+07 \;;
#X obj 821 63 sel 0 1 2 3 4 5 6 7 8 9 10 11 12 13 14 15 16 17 18 19 20 21 22 23 24 25 26 27 28 29 30 31;
#X connect 0 0 3 0;
#X connect 1 0 2 0;
#X connect 2 0 0 0;
#X connect 3 0 13 0;
#X connect 4 0 2 0;
#X connect 5 0 1 0;
#X connect 6 0 3 1;
#X connect 8 0 9 0;
#X connect 9 0 46 0;
#X connect 10 0 8 0;
#X connect 46 0 14 0;
#X connect 46 1 15 0;
#X connect 46 2 16 0;
#X connect 46 3 17 0;
#X connect 46 4 18 0;
#X connect 46 5 19 0;
#X connect 46 6 20 0;
#X connect 46 7 21 0;
#X connect 46 8 22 0;
#X connect 46 9 23 0;
#X connect 46 10 24 0;
#X connect 46 11 25 0;
#X connect 46 12 26 0;
#X connect 46 13 27 0;
#X connect 46 14 28 0;
#X connect 46 15 29 0;
#X connect 46 16 30 0;
#X connect 46 17 31 0;
#X connect 46 18 32 0;
#X connect 46 19 33 0;
#X connect 46 20 34 0;
#X connect 46 21 35 0;
#X connect 46 22 36 0;
#X connect 46 23 37 0;
#X connect 46 24 38 0;
#X connect 46 25 39 0;
#X connect 46 26 40 0;
#X connect 46 27 41 0;
#X connect 46 28 42 0;
#X connect 46 29 43 0;
#X connect 46 30 44 0;
#X connect 46 31 45 0;
#X restore 115 679 pd playeri2;
#X obj 301 196 del 100;
#X obj 323 135 / 2;
#N canvas 781 265 729 266 rupto 0;
#X obj 106 124 f;
#X obj 135 124 + 1;
#X obj 146 176 sel 1;
#X msg 148 199 0;
#X obj 164 25 inlet;
#X floatatom 204 155 5 0 0 0 - - - 0;
#X floatatom 89 162 5 0 0 0 - - - 0;
#X msg 191 50 bang;
#X obj 145 153 >=;
#X obj 96 96 spigot;
#X msg 160 73 1;
#X obj 54 161 t b;
#X obj 98 24 inlet;
#X obj 59 207 outlet;
#X text 83 7 metro;
#X text 162 8 trigbang;
#X text 286 129 send out random bangs at metro freq when triggered;
#X obj 193 101 random 6;
#X obj 290 20 inlet;
#X connect 0 0 1 0;
#X connect 0 0 6 0;
#X connect 0 0 8 0;
#X connect 0 0 11 0;
#X connect 1 0 0 1;
#X connect 2 0 3 0;
#X connect 3 0 0 1;
#X connect 3 0 9 1;
#X connect 4 0 7 0;
#X connect 4 0 10 0;
#X connect 7 0 17 0;
#X connect 8 0 2 0;
#X connect 9 0 0 0;
#X connect 10 0 9 1;
#X connect 11 0 13 0;
#X connect 12 0 9 0;
#X connect 17 0 5 0;
#X connect 17 0 8 1;
#X connect 18 0 17 1;
#X restore 444 487 pd rupto;
#X obj 240 453 sel 0 8;
#N canvas 846 823 729 266 rupto 0;
#X obj 106 124 f;
#X obj 135 124 + 1;
#X obj 146 176 sel 1;
#X msg 148 199 0;
#X obj 164 25 inlet;
#X floatatom 204 155 5 0 0 0 - - - 0;
#X floatatom 89 162 5 0 0 0 - - - 0;
#X msg 191 50 bang;
#X obj 145 153 >=;
#X obj 96 96 spigot;
#X msg 160 73 1;
#X obj 54 161 t b;
#X obj 98 24 inlet;
#X obj 59 207 outlet;
#X text 83 7 metro;
#X text 162 8 trigbang;
#X text 286 129 send out random bangs at metro freq when triggered;
#X obj 193 101 random 6;
#X obj 290 20 inlet;
#X connect 0 0 1 0;
#X connect 0 0 6 0;
#X connect 0 0 8 0;
#X connect 0 0 11 0;
#X connect 1 0 0 1;
#X connect 2 0 3 0;
#X connect 3 0 0 1;
#X connect 3 0 9 1;
#X connect 4 0 7 0;
#X connect 4 0 10 0;
#X connect 7 0 17 0;
#X connect 8 0 2 0;
#X connect 9 0 0 0;
#X connect 10 0 9 1;
#X connect 11 0 13 0;
#X connect 12 0 9 0;
#X connect 17 0 5 0;
#X connect 17 0 8 1;
#X connect 18 0 17 1;
#X restore 273 492 pd rupto;
#X obj 110 456 mod 7;
#X obj 109 418 int;
#X floatatom 109 439 5 0 0 0 - - - 0;
#X obj 290 85 f;
#X obj 248 163 metro 300;
#X obj 325 164 * 0.6;
#X obj 493 402 int;
#X obj 370 375 int;
#X obj 310 890 outlet~;
#X obj 274 753 vcf~;
#X obj 311 863 *~;
#X obj 194 -8 r \$0-busy;
#X obj 358 12 r \$0-swing;
#X obj 284 9 r \$0-speed;
#X obj 515 660 r \$0-snarel;
#X obj 328 839 r \$0-mainvol;
#X obj 341 652 r \$0-kickl;
#X obj 324 702 r \$0-filq;
#X obj 256 701 r \$0-filf;
#X obj 181 654 r \$0-hhl;
#X obj 53 334 r \$0-hhsteps;
#X obj 372 350 r \$0-kicksteps;
#X obj 493 372 r \$0-snaresteps;
#X obj 30 20 inlet;
#X text 16 1 go;
#X obj 306 48 t b f;
#X obj 299 815 clip~ -1 1;
#X obj 338 779 *~, f 5;
#X obj 414 747 r \$0-distort;
#X connect 2 0 16 0;
#X connect 3 0 32 0;
#X connect 4 0 5 0;
#X connect 4 0 13 0;
#X connect 5 0 4 1;
#X connect 6 0 8 0;
#X connect 7 0 20 1;
#X connect 7 1 20 1;
#X connect 8 0 11 0;
#X connect 9 0 17 0;
#X connect 10 0 6 0;
#X connect 11 0 3 0;
#X connect 12 0 7 0;
#X connect 12 0 21 0;
#X connect 12 0 23 0;
#X connect 13 0 14 0;
#X connect 14 0 15 0;
#X connect 15 0 12 0;
#X connect 16 0 32 0;
#X connect 17 0 32 0;
#X connect 18 0 4 0;
#X connect 18 0 20 0;
#X connect 18 0 22 0;
#X connect 19 0 28 0;
#X connect 20 0 10 0;
#X connect 21 0 22 1;
#X connect 21 1 22 1;
#X connect 22 0 2 0;
#X connect 23 0 9 0;
#X connect 24 0 25 0;
#X connect 24 0 23 1;
#X connect 26 0 19 0;
#X connect 26 0 27 1;
#X connect 27 0 18 0;
#X connect 27 0 4 0;
#X connect 27 0 22 0;
#X connect 27 0 20 0;
#X connect 28 0 18 1;
#X connect 29 0 20 2;
#X connect 30 0 22 2;
#X connect 32 0 50 0;
#X connect 33 0 31 0;
#X connect 34 0 13 1;
#X connect 34 0 48 0;
#X connect 35 0 48 0;
#X connect 36 0 26 0;
#X connect 37 0 3 1;
#X connect 38 0 33 1;
#X connect 39 0 16 1;
#X connect 40 0 32 2;
#X connect 41 0 32 1;
#X connect 42 0 17 1;
#X connect 43 0 24 0;
#X connect 44 0 30 0;
#X connect 45 0 29 0;
#X connect 46 0 27 0;
#X connect 48 0 26 0;
#X connect 48 1 28 1;
#X connect 49 0 33 0;
#X connect 50 0 49 0;
#X connect 51 0 50 1;
#X restore 313 230 pd gubbins;
#X obj 313 205 tgl 15 0 empty empty start 0 -6 0 8 #fcfcfc #000000 #000000 0 1;
#X msg 380 340 5;
#X msg 313 348 3;
#X obj 1316 450 s \$0-distort;
#X msg 1318 180 2;
#X obj 313 253 dac~;
#X obj 434 26 loadbang;
#X msg 432 52 \; pd dsp 1;
#X obj 628 114 t b;
#X obj 562 54 loadbang;
#X obj 562 77 t b b;
#X msg 1412 180 1;
#X text 810 78 webpd rework: jankenpopp 2024;
#X text 809 55 obiwannabe's jazz drum patch in your browser <3;
#X obj 1230 408 expr 6.1-$f1;
#X msg 1251 202 4.7;
#X obj 913 544 expr 2.5-$f1;
#X msg 939 368 1.4;
#X obj 808 540 expr 550-$f1;
#X msg 894 368 250;
#X obj 1007 540 expr 1.5-$f1;
#X msg 994 380 0.9;
#X msg 1186 216 3000;
#X connect 4 0 25 0;
#X connect 5 0 27 0;
#X connect 6 0 23 0;
#X connect 7 0 47 0;
#X connect 8 0 51 0;
#X connect 9 0 49 0;
#X connect 10 0 20 0;
#X connect 11 0 22 0;
#X connect 12 0 21 0;
#X connect 13 0 34 0;
#X connect 14 0 26 0;
#X connect 15 0 45 0;
#X connect 16 0 28 0;
#X connect 29 0 6 0;
#X connect 29 0 4 0;
#X connect 29 0 5 0;
#X connect 30 0 36 0;
#X connect 30 0 36 1;
#X connect 31 0 30 0;
#X connect 32 0 10 0;
#X connect 33 0 12 0;
#X connect 33 0 11 0;
#X connect 35 0 13 0;
#X connect 37 0 38 0;
#X connect 39 0 46 0;
#X connect 39 0 53 0;
#X connect 39 0 29 0;
#X connect 39 0 50 0;
#X connect 39 0 52 0;
#X connect 39 0 32 0;
#X connect 39 0 33 0;
#X connect 39 0 42 0;
#X connect 39 0 35 0;
#X connect 39 0 48 0;
#X connect 40 0 41 0;
#X connect 41 1 39 0;
#X connect 42 0 16 0;
#X connect 45 0 24 0;
#X connect 46 0 15 0;
#X connect 47 0 17 0;
#X connect 48 0 7 0;
#X connect 49 0 19 0;
#X connect 50 0 9 0;
#X connect 51 0 18 0;
#X connect 52 0 8 0;
#X connect 53 0 14 0;
