#N canvas 672 38 530 902 10;
#X obj 160 854 dac~;
#X obj 176 659 +~;
#X obj 176 681 cos~;
#X obj 191 502 phasor~;
#X obj 57 69 vsl 15 128 100 600 0 0 empty empty talk_speed 0 -8 0 8 #001488 #fcfcfc #000000 0 1;
#X obj 253 610 osc~;
#X obj 191 271 random 1000;
#X obj 191 293 / 1000;
#X obj 191 437 line~;
#X obj 191 414 pack f f;
#X obj 191 316 t f b;
#X obj 242 346 random 2;
#X obj 242 392 *;
#X obj 160 707 *~;
#X obj 159 732 lop~ 10000;
#X obj 159 754 lop~ 10000;
#X obj 159 776 hip~ 100;
#X obj 159 798 hip~ 100;
#X obj 252 584 *~;
#X obj 254 633 *~;
#X obj 175 539 *~;
#X obj 142 503 +~ 100;
#X obj 57 207 s period;
#X obj 258 370 r period;
#X obj 59 414 line~;
#X obj 59 392 pack f f;
#X obj 110 324 random 2;
#X obj 110 370 *;
#X obj 126 348 r period;
#X obj 128 270 s change;
#X obj 59 251 r change;
#X obj 24 323 random 9000;
#X obj 59 272 random 3;
#X obj 59 294 sel 0;
#X obj 48 668 line~;
#X obj 48 646 pack f f;
#X obj 99 557 random 2;
#X obj 99 603 *;
#X obj 115 581 r period;
#X obj 48 484 r change;
#X obj 48 527 sel 0;
#X obj 13 556 random 2;
#X obj 48 505 random 2;
#X obj 290 586 line~;
#X obj 290 564 pack f f;
#X obj 341 496 random 2;
#X obj 341 542 *;
#X obj 357 520 r period;
#X obj 290 423 r change;
#X obj 290 466 sel 0;
#X obj 291 609 +~ 0.2;
#X obj 255 495 random 100;
#X obj 255 518 / 200;
#X obj 290 444 random 4;
#X obj 381 439 line~;
#X obj 381 417 pack f f;
#X obj 432 352 random 2;
#X obj 432 395 *;
#X obj 448 373 r period;
#X obj 381 282 r change;
#X obj 381 325 sel 0;
#X obj 346 351 random 800;
#X obj 380 461 +~ 20;
#X obj 381 303 random 4;
#X obj 191 473 *~ 0.6;
#X obj 160 821 *~ 0.06;
#X obj 156 122 r period;
#X obj 191 249 metro;
#X obj 221 35 r change;
#X obj 221 56 random 3;
#X obj 221 78 sel 0;
#X obj 221 99 random 2;
#X obj 221 120 + 1;
#X obj 221 164 /;
#X obj 221 141 t b f;
#X obj 191 187 loadbang;
#X obj 191 207 del 100;
#X msg 191 228 1;
#X text 160 0 R2D2? Is that you?;
#X text 271 684 ajf2006;
#X obj 99 624 + 3;
#X msg 160 227 0;
#X obj 133 57 loadbang;
#X obj 104 91 i 200;
#X connect 1 0 2 0;
#X connect 2 0 13 1;
#X connect 3 0 20 1;
#X connect 4 0 22 0;
#X connect 5 0 19 0;
#X connect 6 0 7 0;
#X connect 7 0 10 0;
#X connect 8 0 64 0;
#X connect 9 0 8 0;
#X connect 10 0 9 0;
#X connect 10 1 11 0;
#X connect 11 0 12 0;
#X connect 12 0 9 1;
#X connect 13 0 14 0;
#X connect 14 0 15 0;
#X connect 15 0 16 0;
#X connect 16 0 17 0;
#X connect 17 0 65 0;
#X connect 18 0 5 0;
#X connect 19 0 1 1;
#X connect 20 0 1 0;
#X connect 21 0 20 0;
#X connect 23 0 12 1;
#X connect 24 0 21 0;
#X connect 25 0 24 0;
#X connect 26 0 27 0;
#X connect 27 0 25 1;
#X connect 28 0 27 1;
#X connect 30 0 32 0;
#X connect 31 0 25 0;
#X connect 32 0 33 0;
#X connect 33 0 31 0;
#X connect 33 0 26 0;
#X connect 34 0 13 0;
#X connect 35 0 34 0;
#X connect 36 0 37 0;
#X connect 37 0 80 0;
#X connect 38 0 37 1;
#X connect 39 0 42 0;
#X connect 40 0 36 0;
#X connect 40 0 41 0;
#X connect 41 0 35 0;
#X connect 42 0 40 0;
#X connect 43 0 50 0;
#X connect 44 0 43 0;
#X connect 45 0 46 0;
#X connect 46 0 44 1;
#X connect 47 0 46 1;
#X connect 48 0 53 0;
#X connect 49 0 45 0;
#X connect 49 0 51 0;
#X connect 50 0 19 1;
#X connect 51 0 52 0;
#X connect 52 0 44 0;
#X connect 53 0 49 0;
#X connect 54 0 62 0;
#X connect 55 0 54 0;
#X connect 56 0 57 0;
#X connect 57 0 55 1;
#X connect 58 0 57 1;
#X connect 59 0 63 0;
#X connect 60 0 56 0;
#X connect 60 0 61 0;
#X connect 61 0 55 0;
#X connect 62 0 18 1;
#X connect 63 0 60 0;
#X connect 64 0 3 0;
#X connect 64 0 18 0;
#X connect 65 0 0 0;
#X connect 65 0 0 1;
#X connect 66 0 73 0;
#X connect 67 0 6 0;
#X connect 67 0 29 0;
#X connect 68 0 69 0;
#X connect 69 0 70 0;
#X connect 70 0 71 0;
#X connect 71 0 72 0;
#X connect 72 0 74 0;
#X connect 73 0 67 1;
#X connect 74 0 73 0;
#X connect 74 1 73 1;
#X connect 75 0 76 0;
#X connect 76 0 77 0;
#X connect 77 0 67 0;
#X connect 80 0 35 1;
#X connect 81 0 67 0;
#X connect 82 0 83 0;
#X connect 83 0 4 0;
